<?xml version="1.0" standalone="no"?>
<!DOCTYPE svg PUBLIC "-//W3C//DTD SVG 1.1//EN" "http://www.w3.org/Graphics/SVG/1.1/DTD/svg11.dtd">
<svg width="100%" height="100%" viewBox="0 0 416 385" version="1.1" xmlns="http://www.w3.org/2000/svg" xmlns:xlink="http://www.w3.org/1999/xlink" xml:space="preserve" style="fill-rule:evenodd;clip-rule:evenodd;stroke-linejoin:round;stroke-miterlimit:1.41421;">
    <g transform="matrix(1,0,0,1,-48.1,-63.9)">
        <path d="M461.6,109.6L406.7,66.3C405,64.9 402.9,63.9 400.5,63.9C398.1,63.9 395.9,64.9 394.2,66.4L194.5,323C194.5,323 116,247.5 113.8,245.3C111.6,243.1 108.7,239.4 104.3,239.4C99.9,239.4 97.9,242.5 95.6,244.8C93.9,246.6 65.9,276 52.1,290.6C51.3,291.5 50.8,292 50.1,292.7C48.9,294.4 48.1,296.3 48.1,298.4C48.1,300.6 48.9,302.4 50.1,304.1L52.9,306.7C52.9,306.7 192.2,440.5 194.5,442.8C196.8,445.1 199.6,448 203.7,448C207.7,448 211,443.7 212.9,441.8L462,121.8C463.2,120.1 464,118.2 464,116C464,113.5 463,111.4 461.6,109.6Z" style="fill:rgb(255,33,0);fill-rule:nonzero;"/>
    </g>
</svg>
