<?xml version="1.0" encoding="UTF-8" standalone="no"?>
<!-- Created with Inkscape (http://www.inkscape.org/) -->

<svg
   xmlns:dc="http://purl.org/dc/elements/1.1/"
   xmlns:cc="http://creativecommons.org/ns#"
   xmlns:rdf="http://www.w3.org/1999/02/22-rdf-syntax-ns#"
   xmlns:svg="http://www.w3.org/2000/svg"
   xmlns="http://www.w3.org/2000/svg"
   xmlns:sodipodi="http://sodipodi.sourceforge.net/DTD/sodipodi-0.dtd"
   xmlns:inkscape="http://www.inkscape.org/namespaces/inkscape"
   width="210mm"
   height="297mm"
   viewBox="0 0 744.09448819 1052.3622047"
   id="svg2"
   version="1.1"
   inkscape:version="0.91 r13725"
   sodipodi:docname="carShare_text_logo_white.svg">
  <defs
     id="defs4" />
  <sodipodi:namedview
     id="base"
     pagecolor="#ffffff"
     bordercolor="#666666"
     borderopacity="1.0"
     inkscape:pageopacity="0.0"
     inkscape:pageshadow="2"
     inkscape:zoom="7.9195959"
     inkscape:cx="169.67101"
     inkscape:cy="834.22274"
     inkscape:document-units="px"
     inkscape:current-layer="layer1"
     showgrid="true"
     showguides="false"
     inkscape:window-width="1366"
     inkscape:window-height="745"
     inkscape:window-x="-8"
     inkscape:window-y="-8"
     inkscape:window-maximized="1">
    <inkscape:grid
       type="xygrid"
       id="grid4187" />
  </sodipodi:namedview>
  <metadata
     id="metadata7">
    <rdf:RDF>
      <cc:Work
         rdf:about="">
        <dc:format>image/svg+xml</dc:format>
        <dc:type
           rdf:resource="http://purl.org/dc/dcmitype/StillImage" />
        <dc:title />
      </cc:Work>
    </rdf:RDF>
  </metadata>
  <g
     inkscape:label="Layer 1"
     inkscape:groupmode="layer"
     id="layer1">
    <text
       xml:space="preserve"
       style="font-style:normal;font-weight:normal;font-size:68.23855591px;line-height:125%;font-family:sans-serif;letter-spacing:0px;word-spacing:0px;fill:#ffffff;fill-opacity:0;stroke:none;stroke-width:1.70596385px;stroke-linecap:butt;stroke-linejoin:miter;stroke-opacity:1;"
       x="153.25142"
       y="190.16348"
       id="text4136"
       sodipodi:linespacing="125%"
       transform="scale(0.90287786,1.1075695)"><tspan
         sodipodi:role="line"
         id="tspan4138"
         x="153.25142"
         y="190.16348"
         style="font-style:italic;font-variant:normal;font-weight:600;font-stretch:normal;font-size:68.23855591px;line-height:125%;font-family:Cabin;-inkscape-font-specification:'Cabin, Semi-Bold Italic';text-align:start;writing-mode:lr-tb;text-anchor:start;fill:#ffffff;fill-opacity:0;stroke:none;stroke-width:1.70596385px;stroke-opacity:1;">CarShare C   mpare</tspan></text>
    <g
       id="g4160"
       transform="matrix(1.540277,0,0,1.8894736,110.81975,-5.6009991)"
       style="fill:none;fill-opacity:1;stroke:#ffffff;stroke-opacity:1"
       inkscape:export-xdpi="132.08"
       inkscape:export-ydpi="132.08">
      <path
         id="path4149"
         stroke-miterlimit="10"
         d="m 225.5881,107.43101 c -1.07329,1.1883 -2.51427,2.03811 -4.14297,2.36885"
         inkscape:connector-curvature="0"
         style="fill:none;fill-opacity:1;stroke:#ffffff;stroke-width:1.19187796;stroke-linecap:round;stroke-linejoin:round;stroke-miterlimit:10;stroke-opacity:1" />
      <path
         id="path4151"
         stroke-miterlimit="10"
         d="m 227.11966,99.792856 c 0.2795,0.792594 0.43206,1.644794 0.43206,2.532144 0,0.88795 -0.15256,1.74133 -0.43265,2.53453"
         inkscape:connector-curvature="0"
         style="fill:none;fill-opacity:1;stroke:#ffffff;stroke-width:1.19187796;stroke-linecap:round;stroke-linejoin:round;stroke-miterlimit:10;stroke-opacity:1" />
      <path
         id="path4153"
         stroke-miterlimit="10"
         d="m 221.44871,94.850734 c 1.62751,0.330746 3.06729,1.179959 4.13939,2.368857"
         inkscape:connector-curvature="0"
         style="fill:none;fill-opacity:1;stroke:#ffffff;stroke-width:1.19187796;stroke-linecap:round;stroke-linejoin:round;stroke-miterlimit:10;stroke-opacity:1" />
      <path
         id="path4155"
         stroke-miterlimit="10"
         d="m 214.32783,97.143311 c 1.06077,-1.145395 2.47017,-1.964811 4.05954,-2.290193"
         inkscape:connector-curvature="0"
         style="fill:none;fill-opacity:1;stroke:#ffffff;stroke-width:1.19187796;stroke-linecap:round;stroke-linejoin:round;stroke-miterlimit:10;stroke-opacity:1" />
      <path
         id="path4157"
         stroke-miterlimit="10"
         d="m 212.70867,104.80053 c -0.26639,-0.77651 -0.4112,-1.60903 -0.4112,-2.47553 0,-0.8659 0.14421,-1.69783 0.41,-2.473146"
         inkscape:connector-curvature="0"
         style="fill:none;fill-opacity:1;stroke:#ffffff;stroke-width:1.19187796;stroke-linecap:round;stroke-linejoin:round;stroke-miterlimit:10;stroke-opacity:1" />
      <path
         id="path4159"
         stroke-miterlimit="10"
         d="m 218.47974,109.81476 c -1.63764,-0.31287 -3.08875,-1.15076 -4.17277,-2.33012"
         inkscape:connector-curvature="0"
         style="fill:none;fill-opacity:1;stroke:#ffffff;stroke-width:1.19187796;stroke-linecap:round;stroke-linejoin:round;stroke-miterlimit:10;stroke-opacity:1" />
      <path
         id="path4163"
         stroke-miterlimit="10"
         d="m 219.9231,91.598099 c 5.91589,0 10.7281,4.811611 10.7281,10.726901 0,5.91529 -4.81221,10.7269 -10.7281,10.7269 -5.91529,0 -10.72571,-4.81161 -10.72571,-10.7269 0,-5.91529 4.81042,-10.726901 10.72571,-10.726901 m 0.001,-3.575634 c -7.89857,0 -14.30253,6.403364 -14.30253,14.302535 0,7.89917 6.40396,14.30254 14.30253,14.30254 7.89858,0 14.30254,-6.40337 14.30254,-14.30254 0,-7.899171 -6.40396,-14.302535 -14.30254,-14.302535 l 0,0 z"
         inkscape:connector-curvature="0"
         style="fill:none;fill-opacity:1;stroke:#ffffff;stroke-width:1.19187796;stroke-linecap:round;stroke-linejoin:round;stroke-miterlimit:10;stroke-opacity:1" />
      <path
         id="path4165"
         stroke-miterlimit="10"
         d="m 221.29436,112.7152 0.29797,-5.79193 c 0.54588,-0.19905 1.0411,-0.49285 1.47793,-0.86054 l 5.14772,2.79793 m -16.73814,-0.0173 5.26393,-2.80866 c 0.45708,0.39153 0.98091,0.69725 1.56017,0.90166 l 0.34326,5.77882 m -8.49988,-14.586206 4.95702,3.335466 c -0.0495,0.28069 -0.087,0.56495 -0.087,0.86054 0,0.29559 0.037,0.57985 0.087,0.86054 l -4.99933,3.36407 m 8.54219,-14.614806 -0.34326,5.778821 c -0.57985,0.203811 -1.10368,0.509528 -1.56017,0.901059 l -5.19003,-2.768732 m 16.82037,-0.140642 -5.30326,2.882557 c -0.43682,-0.36829 -0.93205,-0.662088 -1.47793,-0.861132 l -0.29797,-5.791931 m 8.31693,14.630306 -4.87121,-3.33309 c 0.0566,-0.29559 0.0924,-0.59713 0.0924,-0.90702 0,-0.30989 -0.0363,-0.61143 -0.0924,-0.90702 l 4.85691,-3.32355"
         inkscape:connector-curvature="0"
         style="fill:none;fill-opacity:1;stroke:#ffffff;stroke-width:1.19187796;stroke-linecap:round;stroke-linejoin:round;stroke-miterlimit:10;stroke-opacity:1" />
      <circle
         id="circle4167"
         stroke-miterlimit="10"
         r="1.7878169"
         cy="102.325"
         cx="219.9243"
         style="fill:none;fill-opacity:1;stroke:#ffffff;stroke-width:1.19187796;stroke-linecap:round;stroke-linejoin:round;stroke-miterlimit:10;stroke-opacity:1" />
    </g>
    <path
       style="fill:none;fill-opacity:1;fill-rule:evenodd;stroke:#ffffff;stroke-width:2.55894589;stroke-linecap:butt;stroke-linejoin:miter;stroke-miterlimit:4;stroke-dasharray:none;stroke-opacity:0"
       d="m 442.85817,214.63529 -300.36187,0"
       id="path4189"
       inkscape:connector-curvature="0" />
    <path
       style="fill:none;fill-opacity:1;fill-rule:evenodd;stroke:#ffffff;stroke-width:2.55894589;stroke-linecap:butt;stroke-linejoin:miter;stroke-miterlimit:4;stroke-dasharray:none;stroke-opacity:0"
       d="m 335.85266,224.88219 -193.32043,0"
       id="path4189-4"
       inkscape:connector-curvature="0" />
    <path
       style="fill:none;fill-opacity:1;fill-rule:evenodd;stroke:#ffffff;stroke-width:2.55894589;stroke-linecap:butt;stroke-linejoin:miter;stroke-miterlimit:4;stroke-dasharray:none;stroke-opacity:0"
       d="m 389.97991,219.69536 -247.458,0"
       id="path4189-2"
       inkscape:connector-curvature="0" />
  </g>
</svg>
