<?xml version="1.0" encoding="UTF-8" standalone="no"?>
<svg
   xmlns:dc="http://purl.org/dc/elements/1.1/"
   xmlns:cc="http://creativecommons.org/ns#"
   xmlns:rdf="http://www.w3.org/1999/02/22-rdf-syntax-ns#"
   xmlns:svg="http://www.w3.org/2000/svg"
   xmlns="http://www.w3.org/2000/svg"
   xmlns:sodipodi="http://sodipodi.sourceforge.net/DTD/sodipodi-0.dtd"
   xmlns:inkscape="http://www.inkscape.org/namespaces/inkscape"
   enable-background="new 0 0 50 50"
   height="50px"
   id="Layer_1"
   version="1.1"
   viewBox="0 0 50 50"
   width="50px"
   xml:space="preserve"
   inkscape:version="0.91 r13725"
   sodipodi:docname="2x_wheel_colored.svg"
   inkscape:export-filename="C:\Users\jlevy_000\Documents\GitHub\car-share-compare\public\images\assets\logos\car_share_logo_wheel.png"
   inkscape:export-xdpi="55.349998"
   inkscape:export-ydpi="55.349998"><metadata
     id="metadata27"><rdf:RDF><cc:Work
         rdf:about=""><dc:format>image/svg+xml</dc:format><dc:type
           rdf:resource="http://purl.org/dc/dcmitype/StillImage" /><dc:title></dc:title></cc:Work></rdf:RDF></metadata><defs
     id="defs25" /><sodipodi:namedview
     pagecolor="#ffffff"
     bordercolor="#666666"
     borderopacity="1"
     objecttolerance="10"
     gridtolerance="10"
     guidetolerance="10"
     inkscape:pageopacity="0"
     inkscape:pageshadow="2"
     inkscape:window-width="1366"
     inkscape:window-height="715"
     id="namedview23"
     showgrid="false"
     inkscape:zoom="2.36"
     inkscape:cx="85.380178"
     inkscape:cy="37.344127"
     inkscape:window-x="-8"
     inkscape:window-y="-8"
     inkscape:window-maximized="1"
     inkscape:current-layer="Layer_1" /><g
     id="g4161"
     transform="matrix(1.1219512,0,0,1.1219512,-5.0847541,-60.319347)"><path
       inkscape:connector-curvature="0"
       style="fill:none;stroke:#b5b2b2;stroke-width:2.77966094;stroke-linecap:round;stroke-linejoin:round;stroke-miterlimit:10;stroke-opacity:1"
       id="path5"
       stroke-miterlimit="10"
       d="m 51.526526,40.492914 c 0.651829,1.848476 1.007626,3.835934 1.007626,5.905391 0,2.070848 -0.355797,4.061085 -1.009017,5.91095" /><path
       inkscape:connector-curvature="0"
       style="fill:none;stroke:#b5b2b2;stroke-width:2.77966094;stroke-linecap:round;stroke-linejoin:round;stroke-miterlimit:10;stroke-opacity:1"
       id="path3"
       stroke-miterlimit="10"
       d="m 47.95466,58.306373 c -2.503085,2.771322 -5.863695,4.75322 -9.662101,5.524577" /><path
       inkscape:connector-curvature="0"
       style="fill:none;stroke:#b5b2b2;stroke-width:2.77966094;stroke-linecap:round;stroke-linejoin:round;stroke-miterlimit:10;stroke-opacity:1"
       id="path7"
       stroke-miterlimit="10"
       d="m 38.300897,28.967052 c 3.795629,0.771354 7.153458,2.751862 9.653763,5.524577" /><path
       inkscape:connector-curvature="0"
       style="fill:none;stroke:#b5b2b2;stroke-width:2.77966094;stroke-linecap:round;stroke-linejoin:round;stroke-miterlimit:10;stroke-opacity:1"
       id="path9"
       stroke-miterlimit="10"
       d="m 21.693813,34.31373 c 2.473898,-2.671255 5.760847,-4.582272 9.467526,-5.341121" /><path
       inkscape:connector-curvature="0"
       style="fill:none;stroke:#b5b2b2;stroke-width:2.77966094;stroke-linecap:round;stroke-linejoin:round;stroke-miterlimit:10;stroke-opacity:1"
       id="path11"
       stroke-miterlimit="10"
       d="M 17.917643,52.171662 C 17.296389,50.360711 16.95866,48.41912 16.95866,46.398305 c 0,-2.019424 0.336339,-3.959627 0.956204,-5.767797" /><path
       inkscape:connector-curvature="0"
       style="fill:none;stroke:#b5b2b2;stroke-width:2.77966094;stroke-linecap:round;stroke-linejoin:round;stroke-miterlimit:10;stroke-opacity:1"
       id="path13"
       stroke-miterlimit="10"
       d="m 31.376762,63.865695 c -3.819253,-0.72966 -7.203491,-2.683761 -9.731593,-5.434237" /><path
       inkscape:connector-curvature="0"
       style="fill:none;stroke:#b1b1b1;stroke-width:2.77966094;stroke-linecap:round;stroke-linejoin:round;stroke-miterlimit:10;stroke-opacity:1"
       id="path19"
       stroke-miterlimit="10"
       d="m 37.940932,70.63 0.694915,-13.507762 c 1.273085,-0.464203 2.428033,-1.14939 3.44678,-2.006914 l 12.005355,6.525252 M 15.051813,61.600271 27.328185,55.05 c 1.066,0.91312 2.287662,1.626101 3.638577,2.102813 L 31.767306,70.63 M 11.944152,36.612508 23.504762,44.39139 c -0.115357,0.65461 -0.202915,1.31756 -0.202915,2.006915 0,0.689357 0.08617,1.352304 0.202915,2.006917 L 11.845474,56.250813 M 31.767306,22.166609 30.966762,35.643796 c -1.352305,0.475324 -2.573967,1.188305 -3.638577,2.101426 L 15.224152,31.288068 m 39.227967,-0.328 -12.368102,6.72261 C 41.06527,36.823763 39.910322,36.138576 38.637237,35.674373 L 37.942322,22.166609 M 57.338795,56.28695 45.978322,48.513629 c 0.132033,-0.689357 0.215413,-1.392613 0.215413,-2.115324 0,-0.722712 -0.08478,-1.425965 -0.215413,-2.115322 L 57.30544,36.531898" /><path
       inkscape:connector-curvature="0"
       style="fill:none;stroke:#000000;stroke-width:2.77966094;stroke-linecap:round;stroke-linejoin:round;stroke-miterlimit:10;stroke-opacity:1"
       id="path17"
       stroke-miterlimit="10"
       d="m 34.742932,21.381357 c 13.796846,0 25.019728,11.221491 25.019728,25.016948 0,13.795458 -11.222882,25.01695 -25.019728,25.01695 -13.795458,0 -25.0141699,-11.221492 -25.0141699,-25.01695 0,-13.795457 11.2187119,-25.016948 25.0141699,-25.016948 m 0.0029,-8.338984 c -18.420815,0 -33.3559335,14.933728 -33.3559335,33.355932 0,18.422203 14.9351185,33.355933 33.3559335,33.355933 18.420813,0 33.355931,-14.93373 33.355931,-33.355933 0,-18.422204 -14.935118,-33.355932 -33.355931,-33.355932 l 0,0 z" /><circle
       style="fill:none;stroke:#000000;stroke-width:2.77966094;stroke-linecap:round;stroke-linejoin:round;stroke-miterlimit:10;stroke-opacity:1"
       id="circle21"
       stroke-miterlimit="10"
       r="4.1694918"
       cy="46.398304"
       cx="34.745712" /></g><text
     xml:space="preserve"
     style="font-style:normal;font-weight:normal;font-size:40px;line-height:125%;font-family:sans-serif;letter-spacing:0px;word-spacing:0px;fill:#ff5252;fill-opacity:1;stroke:none;stroke-width:1px;stroke-linecap:butt;stroke-linejoin:miter;stroke-opacity:1;"
     x="73.305084"
     y="-20.338984"
     id="text4155"
     sodipodi:linespacing="125%"><tspan
       sodipodi:role="line"
       id="tspan4157"
       x="73.305084"
       y="-20.338984"
       style="font-style:normal;font-variant:normal;font-weight:normal;font-stretch:normal;font-size:40px;line-height:125%;font-family:'Fjalla One';-inkscape-font-specification:'Fjalla One, Normal';text-align:start;writing-mode:lr-tb;text-anchor:start;stroke:none;stroke-opacity:1;fill:#ff5252;fill-opacity:1;">Car Share</tspan><tspan
       sodipodi:role="line"
       x="73.305084"
       y="29.661015"
       id="tspan4159"
       style="font-style:normal;font-variant:normal;font-weight:normal;font-stretch:normal;font-size:40px;line-height:125%;font-family:'Fjalla One';-inkscape-font-specification:'Fjalla One, Normal';text-align:start;writing-mode:lr-tb;text-anchor:start;stroke:none;stroke-opacity:1;fill:#ff5252;fill-opacity:1;"> Compare</tspan></text>
</svg>