<?xml version="1.0" ?><!DOCTYPE svg  PUBLIC '-//W3C//DTD SVG 1.1//EN'  'http://www.w3.org/Graphics/SVG/1.1/DTD/svg11.dtd'><svg enable-background="new 0 0 50 50" height="50px" id="Layer_1" version="1.1" viewBox="0 0 50 50" width="50px" xml:space="preserve" xmlns="http://www.w3.org/2000/svg" xmlns:xlink="http://www.w3.org/1999/xlink"><path d="  M34.504,33.568c-1.801,1.994-4.219,3.42-6.952,3.975" fill="none" stroke="#000000" stroke-linecap="round" stroke-linejoin="round" stroke-miterlimit="10" stroke-width="2"/><path d="  M37.074,20.751c0.469,1.33,0.725,2.76,0.725,4.249c0,1.49-0.256,2.922-0.726,4.253" fill="none" stroke="#000000" stroke-linecap="round" stroke-linejoin="round" stroke-miterlimit="10" stroke-width="2"/><path d="  M27.558,12.458c2.731,0.555,5.147,1.98,6.946,3.975" fill="none" stroke="#000000" stroke-linecap="round" stroke-linejoin="round" stroke-miterlimit="10" stroke-width="2"/><path d="  M15.609,16.305c1.78-1.922,4.145-3.297,6.812-3.843" fill="none" stroke="#000000" stroke-linecap="round" stroke-linejoin="round" stroke-miterlimit="10" stroke-width="2"/><path d="  M12.892,29.154c-0.447-1.303-0.69-2.7-0.69-4.154c0-1.453,0.242-2.849,0.688-4.15" fill="none" stroke="#000000" stroke-linecap="round" stroke-linejoin="round" stroke-miterlimit="10" stroke-width="2"/><path d="  M22.576,37.568c-2.748-0.525-5.183-1.931-7.002-3.91" fill="none" stroke="#000000" stroke-linecap="round" stroke-linejoin="round" stroke-miterlimit="10" stroke-width="2"/><rect fill="none" height="50" width="50"/><path d="  M24.998,7C34.925,7,43,15.074,43,25s-8.075,18-18.002,18C15.072,43,7,34.926,7,25S15.072,7,24.998,7 M25,1C11.746,1,1,11.745,1,25  s10.746,24,24,24s24-10.745,24-24S38.254,1,25,1L25,1z" fill="none" stroke="#000000" stroke-linecap="round" stroke-linejoin="round" stroke-miterlimit="10" stroke-width="2"/><path d="  M27.299,42.435l0.5-9.719c0.916-0.334,1.747-0.827,2.48-1.444l8.638,4.695 M10.83,35.938l8.833-4.713  c0.767,0.657,1.646,1.17,2.618,1.513l0.576,9.697 M8.594,17.959l8.318,5.597c-0.083,0.471-0.146,0.948-0.146,1.444  s0.062,0.973,0.146,1.444l-8.389,5.645 M22.857,7.565l-0.576,9.697c-0.973,0.342-1.852,0.855-2.618,1.512l-8.709-4.646   M39.179,13.892l-8.899,4.837c-0.733-0.618-1.564-1.111-2.48-1.445l-0.5-9.719 M41.256,32.115l-8.174-5.593  c0.095-0.496,0.155-1.002,0.155-1.522s-0.061-1.026-0.155-1.522l8.15-5.577" fill="none" stroke="#000000" stroke-linecap="round" stroke-linejoin="round" stroke-miterlimit="10" stroke-width="2"/><circle cx="25" cy="25" fill="none" r="3" stroke="#000000" stroke-linecap="round" stroke-linejoin="round" stroke-miterlimit="10" stroke-width="2"/></svg>