<?xml version="1.0" ?><!DOCTYPE svg  PUBLIC '-//W3C//DTD SVG 1.1//EN'  'http://www.w3.org/Graphics/SVG/1.1/DTD/svg11.dtd'><svg enable-background="new 0 0 50 50" height="50px" id="Layer_1" version="1.1" viewBox="0 0 50 50" width="50px" xml:space="preserve" xmlns="http://www.w3.org/2000/svg" xmlns:xlink="http://www.w3.org/1999/xlink"><rect fill="none" height="50" width="50"/><rect fill="none" height="50" width="50"/><path d="M6,24.346  c6.814,0,6.021,3.963,8.442,6.908c2.784,3.387,8.202,4.816,9.056,12.842c0.348,3.269,3.632,1.754,4.663,0.035  c1.671-2.785-0.224-6.271-1.643-9.312c-1.22-2.614-0.969-5.449,2.294-5.006C32.732,30.346,35.019,31,38.381,31  C40.671,31,42,29.461,42,28.174c0-1.049-0.312-2.747-0.312-2.747S44,24.614,44,22.302c0-2.188-2.029-3.25-2.029-3.25  S44,18.252,44,16.159c0-2.362-2.717-3.357-2.717-3.357s0.717-1,0.717-2.5c0-1.294,0.125-4.229-12.094-4.229  C13.657,6.073,16.808,9.965,6,9.965" fill="none" stroke="#000000" stroke-linejoin="round" stroke-miterlimit="10" stroke-width="2"/></svg>