<?xml version="1.0" standalone="no"?>
<!DOCTYPE svg PUBLIC "-//W3C//DTD SVG 20010904//EN"
 "http://www.w3.org/TR/2001/REC-SVG-20010904/DTD/svg10.dtd">
<svg version="1.0" xmlns="http://www.w3.org/2000/svg"
 width="261.000000pt" height="261.000000pt" viewBox="0 0 261.000000 261.000000"
 preserveAspectRatio="xMidYMid meet">
<metadata>
Created by potrace 1.11, written by Peter Selinger 2001-2013
</metadata>
<g transform="translate(0.000000,261.000000) scale(0.100000,-0.100000)"
fill="#000000" stroke="none">
<path d="M1250 2433 c0 -8 -14 -13 -37 -13 -38 1 -81 -5 -118 -14 -11 -2 -50
-12 -87 -20 -115 -27 -295 -118 -398 -201 -64 -51 -190 -188 -232 -251 -86
-131 -159 -307 -174 -419 -3 -27 -8 -53 -9 -56 -2 -3 -5 -29 -6 -58 -2 -28 -7
-54 -11 -57 -5 -3 -4 -12 2 -19 8 -10 8 -19 1 -33 -6 -11 -7 -22 -4 -26 4 -4
8 -23 10 -44 4 -53 11 -117 13 -117 1 0 3 -8 5 -19 10 -52 30 -125 42 -154 7
-18 11 -38 7 -45 -4 -7 -3 -9 1 -4 5 4 20 -19 34 -51 60 -133 190 -307 284
-376 14 -11 23 -24 21 -28 -3 -5 -2 -7 3 -6 4 2 40 -18 79 -44 84 -56 170
-102 207 -112 15 -3 27 -11 27 -17 0 -6 4 -8 9 -5 5 4 22 1 38 -5 15 -6 44
-15 63 -19 19 -5 46 -11 60 -14 58 -14 111 -19 207 -20 61 -1 103 -5 103 -11
0 -5 4 -5 8 2 4 6 32 14 62 18 30 4 66 9 80 12 14 2 34 5 45 6 11 1 23 5 26
10 3 4 19 9 36 10 17 1 29 5 26 10 -4 6 15 11 44 10 7 -1 10 3 7 8 -3 5 1 9 9
9 8 0 27 7 43 14 15 8 32 12 37 9 6 -3 7 -1 3 5 -6 11 -3 13 19 12 3 0 15 9
27 20 12 11 28 18 36 15 7 -2 11 -1 8 3 -3 5 9 17 27 27 18 10 35 23 39 29 4
6 11 11 16 11 5 0 16 8 26 18 10 9 22 17 27 17 6 0 7 5 4 10 -3 6 -2 10 3 10
16 0 122 113 162 172 13 20 29 34 35 31 5 -4 7 -3 3 2 -9 10 19 65 33 65 6 0
8 4 4 9 -3 5 2 16 10 25 9 8 15 17 15 18 -1 2 7 21 16 43 18 42 21 48 23 66 0
5 5 7 11 4 5 -3 7 0 5 8 -3 7 1 29 9 49 8 19 12 38 9 42 -4 3 -1 6 6 6 7 0 9
5 6 10 -3 6 -3 16 1 22 5 7 9 19 10 28 0 8 5 38 9 65 12 71 13 308 2 322 -5 7
-7 28 -5 47 2 19 0 32 -4 30 -4 -3 -8 1 -9 8 0 7 -2 22 -5 33 -2 11 -5 29 -7
40 -1 11 -5 23 -10 26 -4 3 -9 19 -10 36 -1 17 -5 29 -9 26 -5 -2 -8 1 -8 6 0
18 -2 23 -42 96 -22 39 -44 81 -51 95 -6 14 -14 27 -17 30 -3 3 -21 25 -39 50
-56 74 -192 202 -269 254 -152 101 -322 165 -482 182 -36 3 -71 11 -79 18 -9
7 -12 7 -9 0 9 -13 -94 -13 -104 1 -5 6 -8 5 -8 -2z m90 -122 c0 6 5 7 11 4 5
-4 36 -8 67 -10 59 -4 166 -28 158 -36 -2 -2 9 -4 25 -5 17 -1 40 -6 52 -12
12 -6 36 -16 54 -23 17 -7 29 -17 26 -23 -3 -5 -2 -6 4 -3 12 8 93 -31 93 -45
0 -5 4 -7 9 -4 5 3 23 -7 40 -24 18 -16 34 -29 37 -29 15 -1 62 -46 57 -54 -3
-6 -2 -7 4 -4 14 9 116 -101 107 -115 -4 -6 -3 -8 4 -4 13 8 56 -50 47 -64 -4
-6 -1 -9 5 -8 24 6 149 -265 136 -298 -3 -7 0 -14 6 -16 6 -2 12 -27 12 -55 1
-28 4 -49 8 -47 19 12 9 -276 -12 -341 -5 -16 -11 -42 -14 -57 -8 -45 -29 -97
-38 -92 -4 3 -5 -1 -2 -9 8 -21 -76 -179 -129 -243 -38 -47 -168 -175 -202
-200 -69 -50 -230 -134 -258 -134 -7 0 -17 -4 -22 -8 -14 -12 -89 -32 -138
-38 -23 -3 -49 -7 -56 -10 -24 -8 -276 -3 -276 6 0 1 -13 3 -30 5 -16 2 -37 6
-45 8 -8 2 -32 7 -53 12 -20 4 -40 11 -43 16 -3 5 -12 9 -20 9 -25 0 -195 85
-230 115 -39 34 -54 44 -54 39 0 -4 -41 35 -91 86 -58 59 -88 97 -85 106 3 8
1 12 -4 9 -10 -6 -63 71 -63 92 0 7 -4 10 -8 7 -7 -4 -25 36 -20 45 2 2 -2 7
-7 10 -14 8 -63 141 -57 151 3 5 1 10 -5 12 -6 2 -11 22 -13 44 -1 23 -5 40
-9 37 -5 -2 -9 11 -9 29 -4 83 -7 118 -13 134 -3 9 -1 23 5 30 8 9 8 14 1 14
-6 0 -8 11 -5 28 3 15 6 41 6 57 0 17 8 36 16 43 9 8 10 10 2 6 -11 -6 -12 0
-6 32 11 57 13 69 15 72 3 2 2 0 20 65 7 26 16 47 21 47 5 0 8 3 7 8 -1 4 4
23 11 42 8 19 13 38 12 43 0 4 3 7 8 7 5 0 14 14 21 31 9 20 18 28 28 24 12
-4 13 -3 2 10 -8 10 -9 15 -1 15 6 0 11 6 11 13 0 7 11 24 25 39 14 15 25 30
25 34 0 13 51 54 61 49 5 -3 6 0 4 7 -6 16 34 55 128 127 64 48 79 56 100 52
5 -1 6 3 3 8 -7 11 22 23 36 14 6 -3 8 -2 5 4 -5 8 53 40 86 47 7 2 26 8 42
15 17 7 44 13 61 14 18 1 30 5 28 8 -6 10 60 21 139 24 38 2 71 6 74 8 3 3 16
2 29 -3 16 -6 24 -6 24 1z"/>
<path d="M1209 2199 c-86 -9 -207 -43 -270 -74 -27 -14 -49 -23 -49 -20 0 3
-6 1 -12 -5 -7 -5 -41 -29 -76 -51 -72 -47 -182 -154 -227 -220 -16 -24 -32
-46 -36 -49 -11 -10 -76 -156 -92 -205 -18 -55 -35 -149 -38 -210 -2 -22 -8
-46 -13 -54 -8 -11 -8 -13 0 -8 7 4 12 -11 13 -46 2 -67 8 -113 20 -159 5 -21
7 -38 4 -38 -3 0 0 -7 7 -15 7 -8 10 -22 6 -30 -3 -9 -2 -13 4 -10 5 3 13 -7
16 -22 16 -61 128 -249 156 -261 5 -2 6 -8 2 -13 -3 -5 -2 -8 3 -7 4 1 35 -24
69 -57 33 -33 65 -62 70 -64 29 -12 73 -49 66 -56 -4 -5 -2 -5 5 -2 11 7 72
-20 84 -36 3 -5 8 -8 10 -7 2 1 17 -3 32 -9 15 -6 39 -14 52 -17 14 -3 23 -10
20 -14 -2 -4 7 -5 22 -2 19 4 24 2 18 -8 -5 -8 -4 -11 2 -7 6 4 39 1 74 -5 35
-6 87 -11 114 -12 28 -1 56 -6 64 -10 9 -6 12 -5 7 2 -4 6 1 11 11 10 43 -1
140 11 167 21 16 7 31 10 33 7 3 -2 29 7 59 20 30 13 61 24 68 24 8 0 16 5 18
10 2 6 13 12 26 13 12 0 22 4 22 8 0 3 27 23 61 44 62 38 191 158 223 207 10
16 22 25 27 22 5 -3 6 1 4 8 -3 8 3 23 13 33 10 11 20 25 21 30 10 29 14 34
24 28 5 -3 7 -1 4 4 -4 6 5 37 20 69 14 33 28 72 29 87 2 16 9 37 14 48 6 10
8 19 4 19 -3 0 1 12 11 26 9 15 12 24 7 20 -6 -4 -10 2 -9 14 1 11 4 20 7 20
8 0 7 234 -1 240 -4 3 -9 25 -12 50 -3 25 -19 82 -35 127 -17 45 -27 85 -24
89 4 4 1 4 -5 0 -8 -4 -13 -1 -13 8 0 23 -93 155 -152 217 -63 65 -151 139
-167 139 -6 0 -11 4 -11 9 0 5 -11 12 -25 15 -14 4 -25 11 -25 16 0 6 -8 10
-18 10 -10 0 -26 6 -37 13 -25 17 -142 57 -168 57 -10 0 -16 3 -14 8 3 4 -14
7 -36 8 -23 0 -73 3 -112 5 -38 3 -100 2 -136 -2z m233 -121 c24 -5 54 -12 68
-14 14 -3 29 -9 35 -15 5 -5 18 -9 30 -9 11 -1 36 -9 55 -20 19 -10 45 -24 58
-29 12 -6 22 -16 22 -22 0 -7 3 -9 7 -6 11 11 59 -25 155 -114 21 -20 38 -39
38 -43 0 -4 11 -18 23 -32 24 -25 113 -184 104 -184 -3 0 3 -17 13 -37 11 -23
15 -42 9 -47 -5 -6 -2 -17 8 -28 15 -17 14 -18 -20 -18 -20 0 -38 4 -42 10 -3
5 -11 7 -19 4 -16 -6 -161 39 -241 76 -33 15 -70 30 -83 34 -12 4 -19 12 -16
18 5 7 2 8 -5 3 -7 -4 -23 -3 -34 3 -48 23 -146 52 -207 61 -75 11 -194 7
-233 -8 -15 -6 -27 -9 -27 -6 0 6 -110 -37 -250 -98 -126 -55 -252 -93 -270
-82 -6 3 -10 1 -10 -4 0 -6 -17 -10 -39 -9 -32 1 -37 4 -34 19 3 11 10 16 16
12 6 -3 7 -1 3 6 -10 15 15 101 28 101 5 0 7 3 3 6 -11 11 23 65 36 57 9 -5 9
-4 0 8 -10 12 -8 20 12 41 13 14 22 28 19 31 -2 2 9 19 26 37 16 18 30 34 30
36 0 2 14 18 30 36 17 17 30 29 30 26 0 -3 21 15 47 39 27 24 54 41 61 38 7
-3 11 -1 7 4 -7 12 54 43 68 34 5 -3 7 -1 4 4 -8 13 115 64 160 66 18 1 33 5
33 9 0 16 229 21 292 6z m-157 -530 c-6 11 8 17 30 12 6 -1 29 -2 53 -2 23 0
42 -3 42 -7 0 -4 10 -8 23 -8 41 -4 68 -13 62 -23 -3 -5 1 -7 9 -4 21 8 107
-26 99 -39 -3 -5 -1 -7 5 -4 5 4 32 -3 59 -15 26 -12 51 -21 56 -20 4 1 7 -2
7 -6 0 -5 6 -9 13 -9 6 -1 35 -10 62 -20 81 -31 170 -52 245 -57 l35 -2 1 -74
c1 -40 -2 -84 -5 -98 l-7 -26 -200 -1 c-217 -2 -249 -6 -310 -41 -85 -50 -134
-136 -137 -244 -1 -38 -5 -72 -10 -76 -4 -4 -7 -12 -7 -18 0 -6 4 -4 10 4 6 9
8 -5 8 -43 -1 -32 -5 -60 -10 -63 -4 -3 -8 -11 -8 -17 0 -7 4 -6 10 3 7 10 9
-5 7 -50 -1 -46 -6 -67 -17 -72 -24 -11 -200 -9 -200 2 0 5 -5 9 -12 7 -9 -1
-12 50 -12 205 -1 113 -4 204 -8 201 -5 -2 -9 1 -9 6 -7 61 -68 132 -144 167
-27 13 -64 24 -82 24 -17 0 -35 5 -38 10 -4 6 -12 7 -18 3 -17 -11 -90 -11
-104 -1 -6 5 -14 5 -16 1 -3 -5 -56 -8 -119 -8 -112 1 -113 1 -116 26 -8 59
-10 169 -4 170 29 4 65 8 108 11 29 1 50 6 48 9 -4 6 83 24 99 21 4 -1 7 2 7
7 0 5 15 13 33 16 17 4 38 12 45 17 6 6 12 8 12 4 0 -3 20 6 45 19 25 14 47
25 50 25 3 0 24 9 48 19 76 35 120 51 125 46 3 -3 11 0 19 6 10 9 17 8 28 -1
13 -11 14 -10 9 6 -4 10 -4 16 0 13 4 -4 19 -4 34 0 19 5 31 3 40 -8 8 -9 11
-10 7 -3z m-625 -518 c0 9 4 9 13 2 7 -6 19 -7 26 -3 7 5 28 5 47 1 19 -4 34
-4 34 1 0 5 10 5 23 0 13 -5 30 -5 39 0 11 6 19 5 23 -1 4 -7 12 -7 24 0 10 5
21 7 23 4 3 -3 18 -7 34 -10 16 -3 32 -11 36 -17 4 -7 8 -8 8 -3 0 5 11 -1 25
-14 49 -46 54 -68 54 -255 0 -96 -3 -175 -6 -175 -11 0 -78 24 -83 30 -3 3
-25 14 -49 25 -25 11 -55 30 -67 42 -12 12 -24 20 -26 18 -5 -5 -138 121 -138
131 0 4 -7 12 -15 18 -21 16 -85 127 -79 137 3 5 1 9 -4 9 -6 0 -15 14 -21 31
-10 28 -9 31 8 26 10 -2 25 -1 32 4 8 4 19 3 26 -3 9 -7 13 -7 13 2z m1160 3
c0 8 4 7 12 -1 6 -6 18 -8 27 -4 9 4 53 5 99 2 l82 -5 -30 -64 c-60 -126 -159
-238 -280 -316 -58 -37 -124 -70 -142 -70 -3 0 -10 -3 -14 -7 -23 -23 -33 -5
-36 67 -2 41 -1 75 2 75 3 0 4 45 4 100 -1 55 3 100 7 100 5 0 8 3 8 8 -5 30
42 89 62 76 8 -4 9 -3 5 5 -10 15 36 33 46 17 5 -7 8 -7 8 3 0 9 8 12 24 9 14
-3 30 -2 36 2 7 4 27 4 46 0 23 -5 34 -4 34 3z"/>
<path d="M1285 1519 c-136 -18 -207 -97 -210 -236 -1 -40 1 -70 5 -68 5 3 11
-7 14 -21 4 -14 15 -35 26 -46 11 -12 17 -26 13 -31 -3 -6 -1 -7 4 -4 6 4 22
-4 37 -18 14 -13 26 -22 26 -20 0 3 12 0 28 -7 25 -10 155 -18 146 -9 -2 2 17
14 43 27 25 13 52 33 60 44 8 11 19 17 25 14 7 -4 8 -2 4 5 -4 6 -3 18 4 25
16 20 23 54 24 122 1 62 -12 100 -46 138 -10 11 -18 23 -18 27 0 3 -22 17 -49
30 -27 13 -48 26 -46 29 4 7 -29 6 -90 -1z m95 -140 c57 -44 56 -139 -1 -182
-85 -62 -203 4 -191 106 5 40 45 92 63 81 7 -4 9 -3 5 4 -19 31 82 24 124 -9z"/>
</g>
</svg>
