<?xml version="1.0" standalone="no"?><!DOCTYPE svg PUBLIC "-//W3C//DTD SVG 1.1//EN" "http://www.w3.org/Graphics/SVG/1.1/DTD/svg11.dtd"><svg width="100%" height="100%" viewBox="0 0 48 48" version="1.1" xmlns="http://www.w3.org/2000/svg" xmlns:xlink="http://www.w3.org/1999/xlink" xml:space="preserve" style="fill-rule:evenodd;clip-rule:evenodd;stroke-linejoin:round;stroke-miterlimit:1.41421;"><g id="Layer1"><circle cx="24" cy="24" r="20" style="fill:#b10000;"/></g><clipPath id="_clip1"><rect x="15.506" y="16.003" width="16.55" height="16.126"/></clipPath><g clip-path="url(#_clip1)"><path d="M29.17,16l-5.17,5.17l-5.17,-5.17l-2.83,2.83l5.17,5.17l-5.17,5.17l2.83,2.83l5.17,-5.17l5.17,5.17l2.83,-2.83l-5.17,-5.17l5.17,-5.17l-2.83,-2.83ZM24,4c-11.05,0 -20,8.95 -20,20c0,11.05 8.95,20 20,20c11.05,0 20,-8.95 20,-20c0,-11.05 -8.95,-20 -20,-20ZM24,40c-8.82,0 -16,-7.18 -16,-16c0,-8.82 7.18,-16 16,-16c8.82,0 16,7.18 16,16c0,8.82 -7.18,16 -16,16Z" style="fill:#fff;fill-rule:nonzero;"/></g></svg>